<svg xmlns="http://www.w3.org/2000/svg" width="1440" height="1020" viewBox="0 0 1440 1020">
<defs><marker id="arrow" markerWidth="9" markerHeight="9" refX="8" refY="4.5" orient="auto"><path d="M0,0 L9,4.5 L0,9" fill="#64748b"/></marker></defs>
<rect width="1440" height="1020" fill="#f8fafc"/>
<g font-family="Arial, sans-serif"><text x="70" y="62" font-size="32" font-weight="bold" fill="#0f172a">GSPro: архитектура компонентов</text><text x="70" y="94" font-size="17" fill="#475569">Карта исходников · 26.09.2026 · подробности в Markdown и GSPro.canvas</text>
<line x1="320" y1="166" x2="390" y2="166" stroke="#64748b" stroke-width="2" marker-end="url(#arrow)"/>
<line x1="470" y1="207" x2="400" y2="320" stroke="#64748b" stroke-width="2" marker-end="url(#arrow)"/>
<line x1="570" y1="207" x2="750" y2="320" stroke="#64748b" stroke-width="2" marker-end="url(#arrow)"/>
<line x1="390" y1="410" x2="550" y2="515" stroke="#64748b" stroke-width="2" marker-end="url(#arrow)"/>
<line x1="770" y1="410" x2="715" y2="515" stroke="#64748b" stroke-width="2" marker-end="url(#arrow)"/>
<line x1="1020" y1="365" x2="910" y2="365" stroke="#64748b" stroke-width="2" marker-end="url(#arrow)"/>
<line x1="1150" y1="320" x2="1150" y2="207" stroke="#64748b" stroke-width="2" marker-end="url(#arrow)"/>
<line x1="290" y1="410" x2="190" y2="515" stroke="#64748b" stroke-width="2" marker-end="url(#arrow)"/>
<line x1="790" y1="568" x2="960" y2="585" stroke="#64748b" stroke-width="2" marker-end="url(#arrow)"/>
<line x1="1200" y1="410" x2="1200" y2="535" stroke="#64748b" stroke-width="2" marker-end="url(#arrow)"/>
<line x1="730" y1="820" x2="810" y2="820" stroke="#64748b" stroke-width="2" marker-end="url(#arrow)"/>
<line x1="900" y1="775" x2="740" y2="620" stroke="#64748b" stroke-width="2" marker-end="url(#arrow)"/>
<path d="M260,365 L40,365 L40,755 L70,755" fill="none" stroke="#64748b" stroke-width="2" marker-end="url(#arrow)"/>
<path d="M1040,775 L1380,775 L1380,455 L910,455 L870,410" fill="none" stroke="#64748b" stroke-width="2" marker-end="url(#arrow)"/>
<rect x="80" y="125" width="240" height="82" rx="16" fill="#dbeafe" stroke="#94a3b8"/>
<text x="200.0" y="173.0" text-anchor="middle" font-size="21" font-weight="bold" fill="#0f172a">Браузер / PWA</text>
<rect x="390" y="125" width="240" height="82" rx="16" fill="#dbeafe" stroke="#94a3b8"/>
<text x="510.0" y="173.0" text-anchor="middle" font-size="21" font-weight="bold" fill="#0f172a">Caddy / HTTPS</text>
<rect x="260" y="320" width="270" height="90" rx="16" fill="#dbeafe" stroke="#94a3b8"/>
<text x="395.0" y="372.0" text-anchor="middle" font-size="21" font-weight="bold" fill="#0f172a">Web + админка</text>
<rect x="640" y="320" width="270" height="90" rx="16" fill="#dbeafe" stroke="#94a3b8"/>
<text x="775.0" y="372.0" text-anchor="middle" font-size="21" font-weight="bold" fill="#0f172a">Telegram Mini App</text>
<rect x="1020" y="320" width="270" height="90" rx="16" fill="#dbeafe" stroke="#94a3b8"/>
<text x="1155.0" y="372.0" text-anchor="middle" font-size="21" font-weight="bold" fill="#0f172a">Telegram worker</text>
<rect x="1000" y="125" width="260" height="82" rx="16" fill="#fef3c7" stroke="#94a3b8"/>
<text x="1130.0" y="173.0" text-anchor="middle" font-size="21" font-weight="bold" fill="#0f172a">Telegram API</text>
<rect x="480" y="515" width="310" height="105" rx="16" fill="#ede9fe" stroke="#94a3b8"/>
<text x="635.0" y="574.5" text-anchor="middle" font-size="21" font-weight="bold" fill="#0f172a">PostgreSQL 17</text>
<rect x="70" y="515" width="240" height="90" rx="16" fill="#fef3c7" stroke="#94a3b8"/>
<text x="190.0" y="567.0" text-anchor="middle" font-size="21" font-weight="bold" fill="#0f172a">Platega</text>
<rect x="70" y="710" width="240" height="90" rx="16" fill="#fef3c7" stroke="#94a3b8"/>
<text x="190.0" y="762.0" text-anchor="middle" font-size="21" font-weight="bold" fill="#0f172a">SMTP / email API</text>
<rect x="960" y="535" width="380" height="100" rx="16" fill="#dcfce7" stroke="#94a3b8"/>
<text x="1150.0" y="592.0" text-anchor="middle" font-size="21" font-weight="bold" fill="#0f172a">Закрытый backup → S3</text>
<rect x="450" y="775" width="280" height="90" rx="16" fill="#dcfce7" stroke="#94a3b8"/>
<text x="590.0" y="827.0" text-anchor="middle" font-size="21" font-weight="bold" fill="#0f172a">GitHub: код и docs</text>
<rect x="810" y="775" width="280" height="90" rx="16" fill="#dcfce7" stroke="#94a3b8"/>
<text x="950.0" y="827.0" text-anchor="middle" font-size="21" font-weight="bold" fill="#0f172a">Сборка / выпуск</text>
<text x="328" y="148" font-size="15" fill="#334155" paint-order="stroke" stroke="#f8fafc" stroke-width="5" stroke-linejoin="round">HTTPS</text>
<text x="444.0" y="254.5" font-size="15" fill="#334155" paint-order="stroke" stroke="#f8fafc" stroke-width="5" stroke-linejoin="round">/</text>
<text x="669.0" y="254.5" font-size="15" fill="#334155" paint-order="stroke" stroke="#f8fafc" stroke-width="5" stroke-linejoin="round">/tg-admin</text>
<text x="479.0" y="453.5" font-size="15" fill="#334155" paint-order="stroke" stroke="#f8fafc" stroke-width="5" stroke-linejoin="round">Prisma</text>
<text x="751.5" y="453.5" font-size="15" fill="#334155" paint-order="stroke" stroke="#f8fafc" stroke-width="5" stroke-linejoin="round">Prisma</text>
<text x="974.0" y="356.0" font-size="15" fill="#334155" paint-order="stroke" stroke="#f8fafc" stroke-width="5" stroke-linejoin="round">bridge</text>
<text x="1159.0" y="254.5" font-size="15" fill="#334155" paint-order="stroke" stroke="#f8fafc" stroke-width="5" stroke-linejoin="round">polling</text>
<text x="249.0" y="453.5" font-size="15" fill="#334155" paint-order="stroke" stroke="#f8fafc" stroke-width="5" stroke-linejoin="round">API оплаты</text>
<text x="834" y="550" font-size="15" fill="#334155" paint-order="stroke" stroke="#f8fafc" stroke-width="5" stroke-linejoin="round">dump</text>
<text x="1209.0" y="463.5" font-size="15" fill="#334155" paint-order="stroke" stroke="#f8fafc" stroke-width="5" stroke-linejoin="round">SQLite</text>
<text x="779.0" y="811.0" font-size="15" fill="#334155" paint-order="stroke" stroke="#f8fafc" stroke-width="5" stroke-linejoin="round">код</text>
<text x="829.0" y="688.5" font-size="15" fill="#334155" paint-order="stroke" stroke="#f8fafc" stroke-width="5" stroke-linejoin="round">миграции</text>
<text x="52" y="660" font-size="15" fill="#334155" paint-order="stroke" stroke="#f8fafc" stroke-width="5" stroke-linejoin="round">письма</text>
<text x="1280" y="444" font-size="15" fill="#334155" paint-order="stroke" stroke="#f8fafc" stroke-width="5" stroke-linejoin="round">deploy</text>
<text x="70" y="945" font-size="18" fill="#334155">GitHub: исходники и документация. Рабочая БД, ключи и полный архив - только закрытая передача.</text><text x="70" y="976" font-size="16" fill="#64748b">Внешние сервисы и фактический последний backup проверяются отдельно от структуры кода.</text></g></svg>